<mxfile host="Electron" agent="Mozilla/5.0 (Windows NT 10.0; Win64; x64) AppleWebKit/537.36 (KHTML, like Gecko) draw.io/28.0.6 Chrome/138.0.7204.100 Electron/37.2.3 Safari/537.36" version="28.0.6">
  <diagram name="Page-1" id="-UqNwGGtfh1j4O1iW3x6">
    <mxGraphModel dx="2082" dy="933" grid="1" gridSize="10" guides="1" tooltips="1" connect="1" arrows="1" fold="1" page="1" pageScale="1" pageWidth="827" pageHeight="1169" math="0" shadow="0">
      <root>
        <mxCell id="0" />
        <mxCell id="1" parent="0" />
        <mxCell id="bulR_VS3dtJKfXY_yD6P-4" value="" style="rounded=0;whiteSpace=wrap;html=1;" parent="1" vertex="1">
          <mxGeometry x="50" y="100" width="740" height="640" as="geometry" />
        </mxCell>
        <mxCell id="bulR_VS3dtJKfXY_yD6P-5" value="" style="rounded=0;whiteSpace=wrap;html=1;" parent="1" vertex="1">
          <mxGeometry x="-179.96" y="105" width="180" height="640" as="geometry" />
        </mxCell>
        <mxCell id="bulR_VS3dtJKfXY_yD6P-6" value="" style="rounded=0;whiteSpace=wrap;html=1;" parent="1" vertex="1">
          <mxGeometry x="840" y="100" width="160" height="630" as="geometry" />
        </mxCell>
        <mxCell id="bulR_VS3dtJKfXY_yD6P-7" value="BRONZE LAYER" style="rounded=0;whiteSpace=wrap;html=1;fillColor=#ffe6cc;strokeColor=#d79b00;" parent="1" vertex="1">
          <mxGeometry x="130" y="105" width="120" height="30" as="geometry" />
        </mxCell>
        <mxCell id="bulR_VS3dtJKfXY_yD6P-8" value="SILVER LAYER" style="rounded=0;whiteSpace=wrap;html=1;fillColor=#dae8fc;strokeColor=#6c8ebf;" parent="1" vertex="1">
          <mxGeometry x="350" y="110" width="140" height="20" as="geometry" />
        </mxCell>
        <mxCell id="bulR_VS3dtJKfXY_yD6P-9" value="GOLD LAYER" style="rounded=0;whiteSpace=wrap;html=1;fillColor=#f8cecc;strokeColor=#b85450;" parent="1" vertex="1">
          <mxGeometry x="510" y="110" width="120" height="20" as="geometry" />
        </mxCell>
        <mxCell id="bulR_VS3dtJKfXY_yD6P-10" value="" style="rounded=0;whiteSpace=wrap;html=1;strokeColor=#FFD966;" parent="1" vertex="1">
          <mxGeometry x="80" y="140" width="190" height="550" as="geometry" />
        </mxCell>
        <mxCell id="bulR_VS3dtJKfXY_yD6P-11" value="" style="rounded=0;whiteSpace=wrap;html=1;strokeColor=light-dark(#f57070, #ededed);" parent="1" vertex="1">
          <mxGeometry x="560" y="140" width="230" height="550" as="geometry" />
        </mxCell>
        <mxCell id="bulR_VS3dtJKfXY_yD6P-12" value="" style="rounded=0;whiteSpace=wrap;html=1;" parent="1" vertex="1">
          <mxGeometry x="304" y="140" width="220" height="550" as="geometry" />
        </mxCell>
        <mxCell id="bulR_VS3dtJKfXY_yD6P-13" value="&lt;b&gt;&lt;font style=&quot;font-size: 14px;&quot;&gt;DATA WAREHOUSE&lt;/font&gt;&lt;/b&gt;" style="rounded=0;whiteSpace=wrap;html=1;" parent="1" vertex="1">
          <mxGeometry x="355" y="80" width="120" as="geometry" />
        </mxCell>
        <mxCell id="bulR_VS3dtJKfXY_yD6P-14" value="&lt;b&gt;&lt;font style=&quot;font-size: 14px;&quot;&gt;SOURCES&lt;/font&gt;&lt;/b&gt;" style="rounded=0;whiteSpace=wrap;html=1;" parent="1" vertex="1">
          <mxGeometry x="-158.48" y="90" width="120" as="geometry" />
        </mxCell>
        <mxCell id="bulR_VS3dtJKfXY_yD6P-15" value="&lt;b&gt;&lt;font style=&quot;font-size: 13px;&quot;&gt;CONSUME&lt;/font&gt;&lt;/b&gt;" style="rounded=0;whiteSpace=wrap;html=1;" parent="1" vertex="1">
          <mxGeometry x="850" y="90" width="120" as="geometry" />
        </mxCell>
        <mxCell id="bulR_VS3dtJKfXY_yD6P-16" value="" style="image;aspect=fixed;html=1;points=[];align=center;fontSize=12;image=img/lib/azure2/general/Folder_Blank.svg;" parent="1" vertex="1">
          <mxGeometry x="-130" y="205" width="80.08" height="65" as="geometry" />
        </mxCell>
        <mxCell id="bulR_VS3dtJKfXY_yD6P-17" value="" style="image;aspect=fixed;html=1;points=[];align=center;fontSize=12;image=img/lib/azure2/general/Files.svg;" parent="1" vertex="1">
          <mxGeometry x="-80" y="245" width="41.52" height="45.4" as="geometry" />
        </mxCell>
        <mxCell id="bulR_VS3dtJKfXY_yD6P-18" value="" style="image;aspect=fixed;html=1;points=[];align=center;fontSize=12;image=img/lib/azure2/general/Folder_Blank.svg;" parent="1" vertex="1">
          <mxGeometry x="-136.16" y="440" width="86.24" height="70" as="geometry" />
        </mxCell>
        <mxCell id="bulR_VS3dtJKfXY_yD6P-19" value="" style="image;aspect=fixed;html=1;points=[];align=center;fontSize=12;image=img/lib/azure2/general/Files.svg;" parent="1" vertex="1">
          <mxGeometry x="-68.44000000000001" y="480" width="38.48" height="42.08" as="geometry" />
        </mxCell>
        <mxCell id="bulR_VS3dtJKfXY_yD6P-23" value="&lt;font style=&quot;font-size: 18px;&quot;&gt;EPR&lt;/font&gt;" style="rounded=0;whiteSpace=wrap;html=1;" parent="1" vertex="1">
          <mxGeometry x="-149.96" y="580" width="120" as="geometry" />
        </mxCell>
        <mxCell id="bulR_VS3dtJKfXY_yD6P-24" value="&lt;h4 style=&quot;text-align: left;&quot;&gt;OBJECT TYPE:&amp;nbsp;TABLES&lt;/h4&gt;&lt;h3 style=&quot;text-align: left;&quot;&gt;&lt;span style=&quot;font-family: Verdana; background-color: transparent; color: light-dark(rgb(0, 0, 0), rgb(255, 255, 255)); font-weight: normal;&quot;&gt;LOAD :&lt;/span&gt;&lt;/h3&gt;&lt;div&gt;&lt;ul&gt;&lt;li style=&quot;text-align: left;&quot;&gt;&lt;font face=&quot;Verdana&quot;&gt;BATCH Processing&lt;/font&gt;&lt;/li&gt;&lt;li style=&quot;text-align: left;&quot;&gt;&lt;font face=&quot;Verdana&quot;&gt;Full Load &lt;/font&gt;&lt;font style=&quot;background-color: transparent; color: light-dark(rgb(0, 0, 0), rgb(255, 255, 255));&quot; face=&quot;Verdana&quot;&gt;Truncate &amp;amp; Insert&lt;/font&gt;&lt;span style=&quot;background-color: transparent; color: light-dark(rgb(0, 0, 0), rgb(255, 255, 255)); text-align: center;&quot;&gt;&amp;nbsp; &amp;nbsp; &amp;nbsp; &amp;nbsp; &lt;b&gt;TRANSFORMATIONS&lt;/b&gt;&lt;/span&gt;&lt;/li&gt;&lt;/ul&gt;&lt;/div&gt;&lt;div&gt;&lt;ul&gt;&lt;li&gt;&lt;span style=&quot;background-color: transparent; color: light-dark(rgb(0, 0, 0), rgb(255, 255, 255));&quot;&gt;DATA CLEANING&lt;/span&gt;&lt;/li&gt;&lt;li&gt;&lt;span style=&quot;background-color: transparent; color: light-dark(rgb(0, 0, 0), rgb(255, 255, 255));&quot;&gt;DATA STANDRIZATION&lt;/span&gt;&lt;/li&gt;&lt;li&gt;&lt;span style=&quot;background-color: transparent; color: light-dark(rgb(0, 0, 0), rgb(255, 255, 255));&quot;&gt;DATA NORMALIZATION&lt;/span&gt;&lt;/li&gt;&lt;li&gt;&lt;span style=&quot;background-color: transparent; color: light-dark(rgb(0, 0, 0), rgb(255, 255, 255));&quot;&gt;DERIVED COLUMNS&lt;/span&gt;&lt;/li&gt;&lt;/ul&gt;&lt;/div&gt;&lt;div style=&quot;text-align: left;&quot;&gt;&lt;b&gt;DATA MODEL : None (as-is)&lt;/b&gt;&lt;/div&gt;&lt;div&gt;&lt;font face=&quot;Verdana&quot;&gt;&lt;br&gt;&lt;/font&gt;&lt;/div&gt;&lt;div&gt;&lt;font face=&quot;Verdana&quot;&gt;&lt;br&gt;&lt;/font&gt;&lt;/div&gt;&lt;div&gt;&lt;font face=&quot;Verdana&quot;&gt;&lt;br&gt;&lt;/font&gt;&lt;/div&gt;&lt;div&gt;&lt;font face=&quot;Verdana&quot;&gt;&lt;br&gt;&lt;/font&gt;&lt;/div&gt;&lt;div&gt;&lt;font face=&quot;Verdana&quot;&gt;&lt;br&gt;&lt;/font&gt;&lt;/div&gt;" style="rounded=0;whiteSpace=wrap;html=1;" parent="1" vertex="1">
          <mxGeometry x="340" y="560" width="130" as="geometry" />
        </mxCell>
        <mxCell id="bulR_VS3dtJKfXY_yD6P-25" value="" style="html=1;verticalLabelPosition=bottom;align=center;labelBackgroundColor=#ffffff;verticalAlign=top;strokeWidth=2;strokeColor=#d79b00;shadow=0;dashed=0;shape=mxgraph.ios7.icons.data;fillColor=#ffe6cc;" parent="1" vertex="1">
          <mxGeometry x="130" y="190" width="100" height="120" as="geometry" />
        </mxCell>
        <mxCell id="bulR_VS3dtJKfXY_yD6P-26" value="" style="html=1;verticalLabelPosition=bottom;align=center;labelBackgroundColor=#ffffff;verticalAlign=top;strokeWidth=2;strokeColor=#6c8ebf;shadow=0;dashed=0;shape=mxgraph.ios7.icons.data;fillColor=#dae8fc;" parent="1" vertex="1">
          <mxGeometry x="377" y="190" width="93" height="120" as="geometry" />
        </mxCell>
        <mxCell id="bulR_VS3dtJKfXY_yD6P-27" value="" style="html=1;verticalLabelPosition=bottom;align=center;labelBackgroundColor=#ffffff;verticalAlign=top;strokeWidth=2;strokeColor=#b85450;shadow=0;dashed=0;shape=mxgraph.ios7.icons.data;fillColor=#f8cecc;" parent="1" vertex="1">
          <mxGeometry x="610" y="190" width="100" height="120" as="geometry" />
        </mxCell>
        <mxCell id="bulR_VS3dtJKfXY_yD6P-41" value="" style="html=1;shadow=0;dashed=0;align=center;verticalAlign=middle;shape=mxgraph.arrows2.arrow;dy=0.7;dx=27.67;notch=0;fillColor=#dae8fc;strokeColor=#6c8ebf;" parent="1" vertex="1">
          <mxGeometry y="305" width="80" height="30" as="geometry" />
        </mxCell>
        <mxCell id="bulR_VS3dtJKfXY_yD6P-42" value="" style="html=1;shadow=0;dashed=0;align=center;verticalAlign=middle;shape=mxgraph.arrows2.arrow;dy=0.76;dx=25.67;notch=0;fillColor=#dae8fc;strokeColor=#6c8ebf;" parent="1" vertex="1">
          <mxGeometry x="260" y="295" width="60" height="30" as="geometry" />
        </mxCell>
        <mxCell id="bulR_VS3dtJKfXY_yD6P-43" value="" style="html=1;shadow=0;dashed=0;align=center;verticalAlign=middle;shape=mxgraph.arrows2.arrow;dy=0.7;dx=27.67;notch=0;fillColor=#dae8fc;strokeColor=#6c8ebf;" parent="1" vertex="1">
          <mxGeometry x="510" y="305" width="60" height="30" as="geometry" />
        </mxCell>
        <mxCell id="bulR_VS3dtJKfXY_yD6P-44" value="" style="html=1;shadow=0;dashed=0;align=center;verticalAlign=middle;shape=mxgraph.arrows2.arrow;dy=0.7;dx=27.67;notch=0;fillColor=#dae8fc;strokeColor=#6c8ebf;" parent="1" vertex="1">
          <mxGeometry x="780" y="305" width="60" height="30" as="geometry" />
        </mxCell>
        <mxCell id="bulR_VS3dtJKfXY_yD6P-45" value="&lt;b&gt;RAW DATA&lt;/b&gt;" style="rounded=0;whiteSpace=wrap;html=1;" parent="1" vertex="1">
          <mxGeometry x="115" y="360" width="120" as="geometry" />
        </mxCell>
        <mxCell id="bulR_VS3dtJKfXY_yD6P-46" value="&lt;b&gt;CLEAN,STANDARIZED&lt;/b&gt;&lt;div&gt;&lt;b&gt;DATA&lt;/b&gt;&lt;/div&gt;" style="rounded=0;whiteSpace=wrap;html=1;" parent="1" vertex="1">
          <mxGeometry x="355" y="350" width="120" as="geometry" />
        </mxCell>
        <mxCell id="bulR_VS3dtJKfXY_yD6P-48" value="BUSINESS-READY DATA" style="rounded=0;whiteSpace=wrap;html=1;" parent="1" vertex="1">
          <mxGeometry x="600" y="325" width="120" as="geometry" />
        </mxCell>
        <mxCell id="bulR_VS3dtJKfXY_yD6P-53" value="&lt;h4 style=&quot;text-align: left;&quot;&gt;OBJECT TYPE:&amp;nbsp;TABLES&lt;/h4&gt;&lt;h3 style=&quot;text-align: left;&quot;&gt;&lt;span style=&quot;font-family: Verdana; background-color: transparent; color: light-dark(rgb(0, 0, 0), rgb(255, 255, 255)); font-weight: normal;&quot;&gt;LOAD :&lt;/span&gt;&lt;/h3&gt;&lt;div&gt;&lt;ul&gt;&lt;li style=&quot;text-align: left;&quot;&gt;&lt;font face=&quot;Verdana&quot;&gt;BATCH Processing&lt;/font&gt;&lt;/li&gt;&lt;li style=&quot;text-align: left;&quot;&gt;&lt;font face=&quot;Verdana&quot;&gt;Full Load&lt;/font&gt;&lt;/li&gt;&lt;/ul&gt;&lt;font style=&quot;text-align: left; background-color: transparent; color: light-dark(rgb(0, 0, 0), rgb(255, 255, 255));&quot; face=&quot;Verdana&quot;&gt;Truncate &amp;amp; Insert&lt;/font&gt;&lt;span style=&quot;text-align: left; background-color: transparent; color: light-dark(rgb(0, 0, 0), rgb(255, 255, 255));&quot;&gt;&amp;nbsp; &amp;nbsp; &amp;nbsp; &amp;nbsp; &amp;nbsp;&lt;b&gt;NO TRANSFORMATION&lt;/b&gt;&lt;/span&gt;&lt;/div&gt;&lt;div style=&quot;text-align: left;&quot;&gt;&lt;b&gt;DATA MODEL : None (as-is)&lt;/b&gt;&lt;/div&gt;&lt;div&gt;&lt;font face=&quot;Verdana&quot;&gt;&lt;br&gt;&lt;/font&gt;&lt;/div&gt;&lt;div&gt;&lt;font face=&quot;Verdana&quot;&gt;&lt;br&gt;&lt;/font&gt;&lt;/div&gt;&lt;div&gt;&lt;font face=&quot;Verdana&quot;&gt;&lt;br&gt;&lt;/font&gt;&lt;/div&gt;&lt;div&gt;&lt;font face=&quot;Verdana&quot;&gt;&lt;br&gt;&lt;/font&gt;&lt;/div&gt;&lt;div&gt;&lt;font face=&quot;Verdana&quot;&gt;&lt;br&gt;&lt;/font&gt;&lt;/div&gt;" style="rounded=0;whiteSpace=wrap;html=1;" parent="1" vertex="1">
          <mxGeometry x="100" y="530" width="160" as="geometry" />
        </mxCell>
        <mxCell id="bulR_VS3dtJKfXY_yD6P-54" value="" style="line;strokeWidth=1;fillColor=none;align=left;verticalAlign=middle;spacingTop=-1;spacingLeft=3;spacingRight=3;rotatable=0;labelPosition=right;points=[];portConstraint=eastwest;strokeColor=inherit;" parent="1" vertex="1">
          <mxGeometry x="110" y="370" width="100" height="40" as="geometry" />
        </mxCell>
        <mxCell id="bulR_VS3dtJKfXY_yD6P-55" value="&lt;h4 style=&quot;text-align: left;&quot;&gt;&lt;font style=&quot;font-size: 10px;&quot;&gt;OBJECT TYPE:&amp;nbsp;TABLES&lt;/font&gt;&lt;/h4&gt;&lt;h3 style=&quot;text-align: left;&quot;&gt;&lt;span style=&quot;font-family: Verdana; background-color: transparent; color: light-dark(rgb(0, 0, 0), rgb(255, 255, 255)); font-weight: normal;&quot;&gt;&lt;font style=&quot;font-size: 10px;&quot;&gt;LOAD :&lt;/font&gt;&lt;/span&gt;&lt;/h3&gt;&lt;div&gt;&lt;ul&gt;&lt;li style=&quot;text-align: left;&quot;&gt;&lt;font style=&quot;font-size: 10px;&quot; face=&quot;Verdana&quot;&gt;BATCH Processing&lt;/font&gt;&lt;/li&gt;&lt;li style=&quot;text-align: left;&quot;&gt;&lt;font style=&quot;font-size: 10px;&quot; face=&quot;Verdana&quot;&gt;Full Load&lt;/font&gt;&lt;/li&gt;&lt;/ul&gt;&lt;font style=&quot;font-size: 10px;&quot;&gt;&lt;font style=&quot;text-align: left; background-color: transparent; color: light-dark(rgb(0, 0, 0), rgb(255, 255, 255));&quot; face=&quot;Verdana&quot;&gt;Truncate &amp;amp; Insert&lt;/font&gt;&lt;span style=&quot;text-align: left; background-color: transparent; color: light-dark(rgb(0, 0, 0), rgb(255, 255, 255));&quot;&gt;&amp;nbsp; &amp;nbsp; &amp;nbsp; &amp;nbsp; &amp;nbsp;&lt;/span&gt;&lt;/font&gt;&lt;/div&gt;&lt;div&gt;&lt;span style=&quot;text-align: left; background-color: transparent; color: light-dark(rgb(0, 0, 0), rgb(255, 255, 255));&quot;&gt;&lt;b&gt;&lt;font style=&quot;font-size: 10px;&quot;&gt;&amp;nbsp;TRANSFORMATION&lt;/font&gt;&lt;/b&gt;&lt;/span&gt;&lt;/div&gt;&lt;div style=&quot;&quot;&gt;&lt;ul&gt;&lt;li style=&quot;text-align: left;&quot;&gt;&lt;span style=&quot;background-color: transparent; color: light-dark(rgb(0, 0, 0), rgb(255, 255, 255));&quot;&gt;&lt;b&gt;&lt;font style=&quot;font-size: 10px;&quot;&gt;DATA INTEGRATION&lt;/font&gt;&lt;/b&gt;&lt;/span&gt;&lt;/li&gt;&lt;li style=&quot;text-align: left;&quot;&gt;&lt;span style=&quot;background-color: transparent; color: light-dark(rgb(0, 0, 0), rgb(255, 255, 255));&quot;&gt;&lt;b&gt;&lt;font style=&quot;font-size: 10px;&quot;&gt;AGGREGATION&lt;/font&gt;&lt;/b&gt;&lt;/span&gt;&lt;/li&gt;&lt;li style=&quot;text-align: left;&quot;&gt;&lt;span style=&quot;background-color: transparent; color: light-dark(rgb(0, 0, 0), rgb(255, 255, 255));&quot;&gt;&lt;b&gt;&lt;font style=&quot;font-size: 10px;&quot;&gt;BUSINESS LOGICS&lt;/font&gt;&lt;/b&gt;&lt;/span&gt;&lt;/li&gt;&lt;/ul&gt;&lt;/div&gt;&lt;div style=&quot;text-align: left;&quot;&gt;&lt;b&gt;&lt;font style=&quot;font-size: 10px;&quot;&gt;DATA MODEL :&amp;nbsp;&lt;/font&gt;&lt;/b&gt;&lt;/div&gt;&lt;div style=&quot;text-align: left;&quot;&gt;&lt;ul&gt;&lt;li&gt;&lt;b&gt;&lt;font style=&quot;font-size: 10px;&quot;&gt;STAR SCHEMA&lt;/font&gt;&lt;/b&gt;&lt;/li&gt;&lt;li&gt;&lt;b&gt;&lt;font style=&quot;font-size: 10px;&quot;&gt;FLATE TABLE&lt;/font&gt;&lt;/b&gt;&lt;/li&gt;&lt;li&gt;&lt;b&gt;&lt;font style=&quot;font-size: 10px;&quot;&gt;AGGREGATED&lt;/font&gt;&lt;/b&gt;&lt;/li&gt;&lt;li&gt;&lt;b&gt;&lt;font style=&quot;font-size: 10px;&quot;&gt;TABLE&lt;/font&gt;&lt;/b&gt;&lt;/li&gt;&lt;/ul&gt;&lt;/div&gt;&lt;div&gt;&lt;font style=&quot;font-size: 10px;&quot; face=&quot;Verdana&quot;&gt;&lt;br&gt;&lt;/font&gt;&lt;/div&gt;&lt;div&gt;&lt;font style=&quot;font-size: 10px;&quot; face=&quot;Verdana&quot;&gt;&lt;br&gt;&lt;/font&gt;&lt;/div&gt;&lt;div&gt;&lt;font style=&quot;font-size: 10px;&quot; face=&quot;Verdana&quot;&gt;&lt;br&gt;&lt;/font&gt;&lt;/div&gt;&lt;div&gt;&lt;font style=&quot;font-size: 10px;&quot; face=&quot;Verdana&quot;&gt;&lt;br&gt;&lt;/font&gt;&lt;/div&gt;&lt;div&gt;&lt;font face=&quot;Verdana&quot;&gt;&lt;br&gt;&lt;/font&gt;&lt;/div&gt;" style="rounded=0;whiteSpace=wrap;html=1;" parent="1" vertex="1">
          <mxGeometry x="620" y="560" width="130" as="geometry" />
        </mxCell>
        <mxCell id="bulR_VS3dtJKfXY_yD6P-56" value="" style="line;strokeWidth=1;fillColor=none;align=left;verticalAlign=middle;spacingTop=-1;spacingLeft=3;spacingRight=3;rotatable=0;labelPosition=right;points=[];portConstraint=eastwest;strokeColor=inherit;" parent="1" vertex="1">
          <mxGeometry x="340" y="360" width="140" height="38" as="geometry" />
        </mxCell>
        <mxCell id="bulR_VS3dtJKfXY_yD6P-57" value="" style="line;strokeWidth=1;fillColor=none;align=left;verticalAlign=middle;spacingTop=-1;spacingLeft=3;spacingRight=3;rotatable=0;labelPosition=right;points=[];portConstraint=eastwest;strokeColor=inherit;" parent="1" vertex="1">
          <mxGeometry x="570" y="342" width="180" height="8" as="geometry" />
        </mxCell>
        <mxCell id="3f8WfUq3M5MtkTzH2gyc-4" value="&lt;font style=&quot;font-size: 17px;&quot;&gt;CRM&lt;/font&gt;" style="rounded=0;whiteSpace=wrap;html=1;" parent="1" vertex="1">
          <mxGeometry x="-160" y="320" width="120" as="geometry" />
        </mxCell>
        <mxCell id="3f8WfUq3M5MtkTzH2gyc-9" value="" style="image;aspect=fixed;html=1;points=[];align=center;fontSize=12;image=img/lib/azure2/analytics/Power_BI_Embedded.svg;" parent="1" vertex="1">
          <mxGeometry x="894.5" y="150" width="71.25" height="95" as="geometry" />
        </mxCell>
        <mxCell id="3f8WfUq3M5MtkTzH2gyc-12" value="" style="sketch=0;points=[[0,0,0],[0.25,0,0],[0.5,0,0],[0.75,0,0],[1,0,0],[0,1,0],[0.25,1,0],[0.5,1,0],[0.75,1,0],[1,1,0],[0,0.25,0],[0,0.5,0],[0,0.75,0],[1,0.25,0],[1,0.5,0],[1,0.75,0]];outlineConnect=0;fontColor=#232F3E;fillColor=#8C4FFF;strokeColor=#ffffff;dashed=0;verticalLabelPosition=bottom;verticalAlign=top;align=center;html=1;fontSize=12;fontStyle=0;aspect=fixed;shape=mxgraph.aws4.resourceIcon;resIcon=mxgraph.aws4.elasticsearch_service;" parent="1" vertex="1">
          <mxGeometry x="881" y="342" width="88" height="88" as="geometry" />
        </mxCell>
        <mxCell id="3f8WfUq3M5MtkTzH2gyc-13" value="" style="points=[];aspect=fixed;html=1;align=center;shadow=0;dashed=0;fillColor=#FF6A00;strokeColor=none;shape=mxgraph.alibaba_cloud.machine_learning;" parent="1" vertex="1">
          <mxGeometry x="880" y="544.81" width="94.62" height="95.19" as="geometry" />
        </mxCell>
        <mxCell id="3f8WfUq3M5MtkTzH2gyc-14" value="&lt;b&gt;&lt;font style=&quot;font-size: 14px;&quot;&gt;BI &amp;amp; REPORTING&lt;/font&gt;&lt;/b&gt;" style="rounded=0;whiteSpace=wrap;html=1;" parent="1" vertex="1">
          <mxGeometry x="867.31" y="270" width="120" as="geometry" />
        </mxCell>
        <mxCell id="3f8WfUq3M5MtkTzH2gyc-15" value="&lt;font style=&quot;font-size: 15px;&quot;&gt;&lt;b&gt;AD-HOC&amp;nbsp;&lt;/b&gt;&lt;/font&gt;&lt;div&gt;&lt;font style=&quot;font-size: 15px;&quot;&gt;&lt;b&gt;SQL QUERY&lt;/b&gt;&lt;/font&gt;&lt;/div&gt;" style="rounded=0;whiteSpace=wrap;html=1;" parent="1" vertex="1">
          <mxGeometry x="870.12" y="470" width="120" as="geometry" />
        </mxCell>
        <mxCell id="3f8WfUq3M5MtkTzH2gyc-16" value="&lt;font style=&quot;font-size: 14px;&quot;&gt;&lt;b&gt;MACHINE LEARNING&lt;/b&gt;&lt;/font&gt;" style="rounded=0;whiteSpace=wrap;html=1;" parent="1" vertex="1">
          <mxGeometry x="860" y="670" width="120" as="geometry" />
        </mxCell>
      </root>
    </mxGraphModel>
  </diagram>
</mxfile>
